<?xml version="1.0" encoding="UTF-8" standalone="no"?>
<!DOCTYPE svg PUBLIC "-//W3C//DTD SVG 1.1//EN"
 "http://www.w3.org/Graphics/SVG/1.1/DTD/svg11.dtd">
<!-- Generated by graphviz version 2.48.0 (0)
 -->
<!-- Title: finite_state_machine Pages: 1 -->
<svg width="505pt" height="202pt"
 viewBox="0.00 0.00 505.40 202.00" xmlns="http://www.w3.org/2000/svg" xmlns:xlink="http://www.w3.org/1999/xlink">
<g id="graph0" class="graph" transform="scale(1 1) rotate(0) translate(4 198)">
<title>finite_state_machine</title>
<polygon fill="white" stroke="transparent" points="-4,4 -4,-198 501.4,-198 501.4,4 -4,4"/>
<!-- A -->
<g id="node1" class="node">
<title>A</title>
<ellipse fill="none" stroke="black" cx="18" cy="-46" rx="18" ry="18"/>
<text text-anchor="middle" x="18" y="-42.3" font-family="Helvetica,Arial,sans-serif" font-size="14.00">A</text>
</g>
<!-- C -->
<g id="node2" class="node">
<title>C</title>
<ellipse fill="none" stroke="black" cx="109" cy="-92" rx="18" ry="18"/>
<text text-anchor="middle" x="109" y="-88.3" font-family="Helvetica,Arial,sans-serif" font-size="14.00">C</text>
</g>
<!-- A&#45;&gt;C -->
<g id="edge1" class="edge">
<title>A&#45;&gt;C</title>
<path fill="none" stroke="black" d="M34.27,-54.44C40.38,-57.77 47.5,-61.61 54,-65 63.52,-69.96 74.07,-75.28 83.29,-79.86"/>
<polygon fill="black" stroke="black" points="81.82,-83.04 92.33,-84.34 84.92,-76.77 81.82,-83.04"/>
<text text-anchor="middle" x="63.5" y="-77.8" font-family="Helvetica,Arial,sans-serif" font-size="14.00">0.5</text>
</g>
<!-- B -->
<g id="node3" class="node">
<title>B</title>
<ellipse fill="none" stroke="black" cx="163" cy="-46" rx="18" ry="18"/>
<text text-anchor="middle" x="163" y="-42.3" font-family="Helvetica,Arial,sans-serif" font-size="14.00">B</text>
</g>
<!-- A&#45;&gt;B -->
<g id="edge2" class="edge">
<title>A&#45;&gt;B</title>
<path fill="none" stroke="black" d="M36.25,-46C60.62,-46 105.39,-46 134.41,-46"/>
<polygon fill="black" stroke="black" points="134.69,-49.5 144.69,-46 134.69,-42.5 134.69,-49.5"/>
<text text-anchor="middle" x="63.5" y="-49.8" font-family="Helvetica,Arial,sans-serif" font-size="14.00">0.5</text>
</g>
<!-- E -->
<g id="node5" class="node">
<title>E</title>
<ellipse fill="none" stroke="black" cx="217" cy="-143" rx="18" ry="18"/>
<text text-anchor="middle" x="217" y="-139.3" font-family="Helvetica,Arial,sans-serif" font-size="14.00">E</text>
</g>
<!-- C&#45;&gt;E -->
<g id="edge4" class="edge">
<title>C&#45;&gt;E</title>
<path fill="none" stroke="black" d="M125.64,-99.53C142.86,-107.81 170.8,-121.25 191.05,-131"/>
<polygon fill="black" stroke="black" points="189.77,-134.26 200.3,-135.44 192.8,-127.95 189.77,-134.26"/>
<text text-anchor="middle" x="163" y="-128.8" font-family="Helvetica,Arial,sans-serif" font-size="14.00">0.2</text>
</g>
<!-- D -->
<g id="node6" class="node">
<title>D</title>
<ellipse fill="none" stroke="black" cx="308" cy="-119" rx="18" ry="18"/>
<text text-anchor="middle" x="308" y="-115.3" font-family="Helvetica,Arial,sans-serif" font-size="14.00">D</text>
</g>
<!-- C&#45;&gt;D -->
<g id="edge5" class="edge">
<title>C&#45;&gt;D</title>
<path fill="none" stroke="black" d="M127.09,-92.3C151.26,-92.93 196.76,-94.89 235,-101 250.41,-103.46 267.36,-107.62 280.94,-111.33"/>
<polygon fill="black" stroke="black" points="280.01,-114.7 290.58,-114.03 281.9,-107.96 280.01,-114.7"/>
<text text-anchor="middle" x="217" y="-104.8" font-family="Helvetica,Arial,sans-serif" font-size="14.00">0.8</text>
</g>
<!-- G -->
<g id="node4" class="node">
<title>G</title>
<ellipse fill="none" stroke="black" cx="479.2" cy="-69" rx="18.4" ry="18.4"/>
<text text-anchor="middle" x="479.2" y="-65.3" font-family="Helvetica,Arial,sans-serif" font-size="14.00">G</text>
</g>
<!-- B&#45;&gt;G -->
<g id="edge3" class="edge">
<title>B&#45;&gt;G</title>
<path fill="none" stroke="black" d="M181.26,-46C200.75,-46 233.4,-46 261.5,-46 261.5,-46 261.5,-46 400,-46 418.17,-46 437.78,-51.78 452.82,-57.55"/>
<polygon fill="black" stroke="black" points="451.84,-60.93 462.42,-61.47 454.49,-54.45 451.84,-60.93"/>
<text text-anchor="middle" x="308" y="-49.8" font-family="Helvetica,Arial,sans-serif" font-size="14.00">1</text>
</g>
<!-- G&#45;&gt;A -->
<g id="edge11" class="edge">
<title>G&#45;&gt;A</title>
<path fill="none" stroke="black" d="M469.61,-53.34C457.16,-32.98 432.05,0 400,0 108,0 108,0 108,0 82.52,0 57.07,-15.06 39.94,-27.94"/>
<polygon fill="black" stroke="black" points="37.47,-25.44 31.8,-34.39 41.81,-30.93 37.47,-25.44"/>
<text text-anchor="middle" x="262.5" y="-3.8" font-family="Helvetica,Arial,sans-serif" font-size="14.00">0.1</text>
</g>
<!-- G&#45;&gt;D -->
<g id="edge12" class="edge">
<title>G&#45;&gt;D</title>
<path fill="none" stroke="black" d="M466.58,-82.29C455.25,-94.23 436.88,-111.06 417,-119 386.73,-131.09 376.43,-129.21 344,-126 341.26,-125.73 338.42,-125.34 335.59,-124.89"/>
<polygon fill="black" stroke="black" points="336.11,-121.42 325.63,-123.02 334.82,-128.3 336.11,-121.42"/>
<text text-anchor="middle" x="399" y="-131.8" font-family="Helvetica,Arial,sans-serif" font-size="14.00">0.9</text>
</g>
<!-- E&#45;&gt;E -->
<g id="edge8" class="edge">
<title>E&#45;&gt;E</title>
<path fill="none" stroke="black" d="M209.33,-159.29C207.48,-169.39 210.04,-179 217,-179 221.46,-179 224.11,-175.06 224.95,-169.57"/>
<polygon fill="black" stroke="black" points="228.45,-169.19 224.67,-159.29 221.45,-169.38 228.45,-169.19"/>
<text text-anchor="middle" x="217" y="-182.8" font-family="Helvetica,Arial,sans-serif" font-size="14.00">0.6</text>
</g>
<!-- E&#45;&gt;D -->
<g id="edge9" class="edge">
<title>E&#45;&gt;D</title>
<path fill="none" stroke="black" d="M234.74,-138.49C247.67,-135 265.8,-130.11 280.67,-126.1"/>
<polygon fill="black" stroke="black" points="281.59,-129.48 290.33,-123.49 279.77,-122.72 281.59,-129.48"/>
<text text-anchor="middle" x="262.5" y="-136.8" font-family="Helvetica,Arial,sans-serif" font-size="14.00">0.4</text>
</g>
<!-- D&#45;&gt;D -->
<g id="edge7" class="edge">
<title>D&#45;&gt;D</title>
<path fill="none" stroke="black" d="M300.33,-135.29C298.48,-145.39 301.04,-155 308,-155 312.46,-155 315.11,-151.06 315.95,-145.57"/>
<polygon fill="black" stroke="black" points="319.45,-145.19 315.67,-135.29 312.45,-145.38 319.45,-145.19"/>
<text text-anchor="middle" x="308" y="-158.8" font-family="Helvetica,Arial,sans-serif" font-size="14.00">0.1</text>
</g>
<!-- F -->
<g id="node7" class="node">
<title>F</title>
<ellipse fill="none" stroke="black" cx="399" cy="-92" rx="18" ry="18"/>
<text text-anchor="middle" x="399" y="-88.3" font-family="Helvetica,Arial,sans-serif" font-size="14.00">F</text>
</g>
<!-- D&#45;&gt;F -->
<g id="edge6" class="edge">
<title>D&#45;&gt;F</title>
<path fill="none" stroke="black" d="M325.32,-114.05C338.29,-110.11 356.68,-104.54 371.71,-99.97"/>
<polygon fill="black" stroke="black" points="372.92,-103.26 381.48,-97.01 370.89,-96.57 372.92,-103.26"/>
<text text-anchor="middle" x="353.5" y="-110.8" font-family="Helvetica,Arial,sans-serif" font-size="14.00">0.9</text>
</g>
<!-- F&#45;&gt;G -->
<g id="edge10" class="edge">
<title>F&#45;&gt;G</title>
<path fill="none" stroke="black" d="M416.58,-87.12C426.85,-84.1 440.25,-80.16 451.94,-76.72"/>
<polygon fill="black" stroke="black" points="453.03,-80.05 461.64,-73.87 451.06,-73.33 453.03,-80.05"/>
<text text-anchor="middle" x="439" y="-84.8" font-family="Helvetica,Arial,sans-serif" font-size="14.00">1</text>
</g>
</g>
</svg>
